<svg width="44" height="30" viewBox="0 0 44 30" fill="none" xmlns="http://www.w3.org/2000/svg">
<path d="M32.1468 8.78685C32.1468 8.78685 28.6328 19.8093 28.3465 20.7192C28.2423 19.7833 25.6654 0 25.6654 0C19.6785 0 16.4769 4.26343 14.7849 8.76084C14.7849 8.76084 10.516 19.8093 10.1516 20.7453C10.1256 19.8874 9.50088 8.89081 9.50088 8.89081C9.13643 3.37955 4.08667 0.0259956 0 0.0259956L4.94566 30C11.2188 29.974 14.6027 25.7366 16.3727 21.2392C16.3727 21.2392 20.1471 11.4904 20.3032 11.0486C20.3292 11.4644 23.0103 30 23.0103 30C29.3095 30 32.6934 26.0226 34.5155 21.6811L43.3396 0.0259956C37.1184 0.0259956 33.8387 4.26343 32.1468 8.78685Z" fill="#fff"/>
</svg>
