<svg width="36" height="36" viewBox="0 0 36 36" fill="none" xmlns="http://www.w3.org/2000/svg">
<path d="M32.4 0H3.6C1.62 0 0 1.62 0 3.6V32.4C0 34.38 1.62 36 3.6 36H32.4C34.38 36 36 34.38 36 32.4V3.6C36 1.62 34.38 0 32.4 0ZM10.8 30.6H5.4V14.4H10.8V30.6ZM8.1 11.34C6.3 11.34 4.86 9.9 4.86 8.1C4.86 6.3 6.3 4.86 8.1 4.86C9.9 4.86 11.34 6.3 11.34 8.1C11.34 9.9 9.9 11.34 8.1 11.34ZM30.6 30.6H25.2V21.06C25.2 19.6201 23.94 18.36 22.5 18.36C21.06 18.36 19.8 19.6201 19.8 21.06V30.6H14.4V14.4H19.8V16.56C20.7 15.12 22.68 14.04 24.3 14.04C27.72 14.04 30.6 16.92 30.6 20.34V30.6Z" fill="#fff"/>
</svg>
